# xmcd
# 
# Track frame offsets:
#     150
#     22647
#     44582
#     59150
#     86345
#     104560
#     125000
#     150790
#     174140
#     192775
#     213787
#     225147
# 
# Disc length: 3405
# 
# Revision: 2
# Processed by: cddbd v1.5.2PL0 Copyright (c) Steve Scherf et al.
# Submitted via: BonkEnc v1.0
# 
DISCID=870d4b0c
DTITLE=Blue Night - Blues and Soul
DYEAR=0
DGENRE=
TTITLE0=Mustang Sally
TTITLE1=Medley-Black Dog-lazy
TTITLE2=Rock a Blues
TTITLE3=Leave my Girl Alone
TTITLE4=Purple Haze
TTITLE5=Sex, Blues and Rock'n Roll
TTITLE6=Thrill is Gone
TTITLE7=Make your Moves
TTITLE8=Night And Day
TTITLE9=Don't Feel Sorry For Me
TTITLE10=Papa's Got a Brand New Bag
TTITLE11=Summertime
EXTD=
EXTT0=
EXTT1=
EXTT2=
EXTT3=
EXTT4=
EXTT5=
EXTT6=
EXTT7=
EXTT8=
EXTT9=
EXTT10=
EXTT11=
PLAYORDER=
